<mxfile host="app.diagrams.net" modified="2024-03-29T02:52:58.795Z" agent="Mozilla/5.0 (Macintosh; Intel Mac OS X 10_15_7) AppleWebKit/537.36 (KHTML, like Gecko) Chrome/123.0.0.0 Safari/537.36" etag="bsiHNB0NaI51bFse6TKy" version="24.2.1" type="github">
  <diagram id="C5RBs43oDa-KdzZeNtuy" name="Page-1">
    <mxGraphModel dx="2261" dy="820" grid="1" gridSize="10" guides="1" tooltips="1" connect="1" arrows="1" fold="1" page="1" pageScale="1" pageWidth="827" pageHeight="1169" math="0" shadow="0">
      <root>
        <mxCell id="WIyWlLk6GJQsqaUBKTNV-0" />
        <mxCell id="WIyWlLk6GJQsqaUBKTNV-1" parent="WIyWlLk6GJQsqaUBKTNV-0" />
        <mxCell id="_a7eJS6Mzry5bON17dkB-85" value="" style="edgeStyle=orthogonalEdgeStyle;rounded=0;orthogonalLoop=1;jettySize=auto;html=1;" parent="WIyWlLk6GJQsqaUBKTNV-1" target="_a7eJS6Mzry5bON17dkB-78" edge="1">
          <mxGeometry relative="1" as="geometry">
            <mxPoint x="235" y="41" as="sourcePoint" />
          </mxGeometry>
        </mxCell>
        <mxCell id="WIyWlLk6GJQsqaUBKTNV-3" value="Ticket url" style="rounded=1;whiteSpace=wrap;html=1;fontSize=12;glass=0;strokeWidth=1;shadow=0;" parent="WIyWlLk6GJQsqaUBKTNV-1" vertex="1">
          <mxGeometry x="184" y="1" width="112" height="40" as="geometry" />
        </mxCell>
        <mxCell id="_a7eJS6Mzry5bON17dkB-87" value="" style="edgeStyle=orthogonalEdgeStyle;rounded=0;orthogonalLoop=1;jettySize=auto;html=1;" parent="WIyWlLk6GJQsqaUBKTNV-1" source="WIyWlLk6GJQsqaUBKTNV-6" target="WIyWlLk6GJQsqaUBKTNV-7" edge="1">
          <mxGeometry relative="1" as="geometry" />
        </mxCell>
        <mxCell id="_a7eJS6Mzry5bON17dkB-88" value="No" style="edgeLabel;html=1;align=center;verticalAlign=middle;resizable=0;points=[];" parent="_a7eJS6Mzry5bON17dkB-87" vertex="1" connectable="0">
          <mxGeometry x="0.037" y="2" relative="1" as="geometry">
            <mxPoint as="offset" />
          </mxGeometry>
        </mxCell>
        <mxCell id="_a7eJS6Mzry5bON17dkB-92" value="" style="edgeStyle=orthogonalEdgeStyle;rounded=0;orthogonalLoop=1;jettySize=auto;html=1;" parent="WIyWlLk6GJQsqaUBKTNV-1" source="WIyWlLk6GJQsqaUBKTNV-6" target="WIyWlLk6GJQsqaUBKTNV-10" edge="1">
          <mxGeometry relative="1" as="geometry" />
        </mxCell>
        <mxCell id="_a7eJS6Mzry5bON17dkB-93" value="Yes" style="edgeLabel;html=1;align=center;verticalAlign=middle;resizable=0;points=[];" parent="_a7eJS6Mzry5bON17dkB-92" vertex="1" connectable="0">
          <mxGeometry x="0.55" y="2" relative="1" as="geometry">
            <mxPoint as="offset" />
          </mxGeometry>
        </mxCell>
        <mxCell id="WIyWlLk6GJQsqaUBKTNV-6" value="检查 test 表开头 3 个 rowkey 和结尾 3 个 rowke 是否符合预期" style="rhombus;whiteSpace=wrap;html=1;shadow=0;fontFamily=Helvetica;fontSize=12;align=center;strokeWidth=1;spacing=6;spacingTop=-4;" parent="WIyWlLk6GJQsqaUBKTNV-1" vertex="1">
          <mxGeometry x="140" y="170" width="190" height="100" as="geometry" />
        </mxCell>
        <mxCell id="WIyWlLk6GJQsqaUBKTNV-7" value="Failed" style="rounded=1;whiteSpace=wrap;html=1;fontSize=12;glass=0;strokeWidth=1;shadow=0;fillColor=#D1D1D1;" parent="WIyWlLk6GJQsqaUBKTNV-1" vertex="1">
          <mxGeometry x="397.5" y="200" width="120" height="40" as="geometry" />
        </mxCell>
        <mxCell id="_a7eJS6Mzry5bON17dkB-82" value="" style="edgeStyle=orthogonalEdgeStyle;rounded=0;orthogonalLoop=1;jettySize=auto;html=1;" parent="WIyWlLk6GJQsqaUBKTNV-1" source="WIyWlLk6GJQsqaUBKTNV-10" target="_a7eJS6Mzry5bON17dkB-79" edge="1">
          <mxGeometry relative="1" as="geometry" />
        </mxCell>
        <mxCell id="_a7eJS6Mzry5bON17dkB-83" value="Yes" style="edgeLabel;html=1;align=center;verticalAlign=middle;resizable=0;points=[];" parent="_a7eJS6Mzry5bON17dkB-82" vertex="1" connectable="0">
          <mxGeometry x="-0.66" y="1" relative="1" as="geometry">
            <mxPoint as="offset" />
          </mxGeometry>
        </mxCell>
        <mxCell id="_a7eJS6Mzry5bON17dkB-89" value="" style="edgeStyle=orthogonalEdgeStyle;rounded=0;orthogonalLoop=1;jettySize=auto;html=1;" parent="WIyWlLk6GJQsqaUBKTNV-1" source="WIyWlLk6GJQsqaUBKTNV-10" target="WIyWlLk6GJQsqaUBKTNV-12" edge="1">
          <mxGeometry relative="1" as="geometry" />
        </mxCell>
        <mxCell id="_a7eJS6Mzry5bON17dkB-90" value="No" style="edgeLabel;html=1;align=center;verticalAlign=middle;resizable=0;points=[];" parent="_a7eJS6Mzry5bON17dkB-89" vertex="1" connectable="0">
          <mxGeometry x="-0.3204" y="4" relative="1" as="geometry">
            <mxPoint x="1" as="offset" />
          </mxGeometry>
        </mxCell>
        <mxCell id="WIyWlLk6GJQsqaUBKTNV-10" value="检查 test 表 region 切分是否符合 split algorithm" style="rhombus;whiteSpace=wrap;html=1;shadow=0;fontFamily=Helvetica;fontSize=12;align=center;strokeWidth=1;spacing=6;spacingTop=-4;" parent="WIyWlLk6GJQsqaUBKTNV-1" vertex="1">
          <mxGeometry x="130" y="290" width="210" height="80" as="geometry" />
        </mxCell>
        <mxCell id="_a7eJS6Mzry5bON17dkB-4" value="" style="edgeStyle=orthogonalEdgeStyle;rounded=0;orthogonalLoop=1;jettySize=auto;html=1;" parent="WIyWlLk6GJQsqaUBKTNV-1" target="_a7eJS6Mzry5bON17dkB-3" edge="1">
          <mxGeometry relative="1" as="geometry">
            <mxPoint x="235" y="440" as="sourcePoint" />
          </mxGeometry>
        </mxCell>
        <mxCell id="WIyWlLk6GJQsqaUBKTNV-12" value="Failed" style="rounded=1;whiteSpace=wrap;html=1;fontSize=12;glass=0;strokeWidth=1;shadow=0;" parent="WIyWlLk6GJQsqaUBKTNV-1" vertex="1">
          <mxGeometry x="400" y="310" width="120" height="40" as="geometry" />
        </mxCell>
        <mxCell id="_a7eJS6Mzry5bON17dkB-12" style="edgeStyle=orthogonalEdgeStyle;rounded=0;orthogonalLoop=1;jettySize=auto;html=1;exitX=0.5;exitY=1;exitDx=0;exitDy=0;entryX=0.5;entryY=0;entryDx=0;entryDy=0;" parent="WIyWlLk6GJQsqaUBKTNV-1" source="_a7eJS6Mzry5bON17dkB-3" target="_a7eJS6Mzry5bON17dkB-7" edge="1">
          <mxGeometry relative="1" as="geometry" />
        </mxCell>
        <mxCell id="_a7eJS6Mzry5bON17dkB-13" value="Yes" style="edgeLabel;html=1;align=center;verticalAlign=middle;resizable=0;points=[];" parent="_a7eJS6Mzry5bON17dkB-12" vertex="1" connectable="0">
          <mxGeometry x="-0.4" y="1" relative="1" as="geometry">
            <mxPoint as="offset" />
          </mxGeometry>
        </mxCell>
        <mxCell id="_a7eJS6Mzry5bON17dkB-124" value="" style="edgeStyle=orthogonalEdgeStyle;rounded=0;orthogonalLoop=1;jettySize=auto;html=1;" parent="WIyWlLk6GJQsqaUBKTNV-1" source="_a7eJS6Mzry5bON17dkB-3" target="_a7eJS6Mzry5bON17dkB-123" edge="1">
          <mxGeometry relative="1" as="geometry" />
        </mxCell>
        <mxCell id="_a7eJS6Mzry5bON17dkB-130" value="No" style="edgeLabel;html=1;align=center;verticalAlign=middle;resizable=0;points=[];" parent="_a7eJS6Mzry5bON17dkB-124" vertex="1" connectable="0">
          <mxGeometry x="-0.2688" relative="1" as="geometry">
            <mxPoint as="offset" />
          </mxGeometry>
        </mxCell>
        <mxCell id="_a7eJS6Mzry5bON17dkB-3" value="All memstore size == 0" style="rhombus;whiteSpace=wrap;html=1;" parent="WIyWlLk6GJQsqaUBKTNV-1" vertex="1">
          <mxGeometry x="162.5" y="490" width="145" height="80" as="geometry" />
        </mxCell>
        <mxCell id="_a7eJS6Mzry5bON17dkB-17" value="" style="edgeStyle=orthogonalEdgeStyle;rounded=0;orthogonalLoop=1;jettySize=auto;html=1;" parent="WIyWlLk6GJQsqaUBKTNV-1" source="_a7eJS6Mzry5bON17dkB-7" target="_a7eJS6Mzry5bON17dkB-15" edge="1">
          <mxGeometry relative="1" as="geometry" />
        </mxCell>
        <mxCell id="_a7eJS6Mzry5bON17dkB-18" value="" style="edgeStyle=orthogonalEdgeStyle;rounded=0;orthogonalLoop=1;jettySize=auto;html=1;" parent="WIyWlLk6GJQsqaUBKTNV-1" source="_a7eJS6Mzry5bON17dkB-7" target="_a7eJS6Mzry5bON17dkB-15" edge="1">
          <mxGeometry relative="1" as="geometry" />
        </mxCell>
        <mxCell id="_a7eJS6Mzry5bON17dkB-21" value="" style="edgeStyle=orthogonalEdgeStyle;rounded=0;orthogonalLoop=1;jettySize=auto;html=1;" parent="WIyWlLk6GJQsqaUBKTNV-1" source="_a7eJS6Mzry5bON17dkB-7" target="_a7eJS6Mzry5bON17dkB-20" edge="1">
          <mxGeometry relative="1" as="geometry" />
        </mxCell>
        <mxCell id="_a7eJS6Mzry5bON17dkB-22" value="No" style="edgeLabel;html=1;align=center;verticalAlign=middle;resizable=0;points=[];" parent="_a7eJS6Mzry5bON17dkB-21" vertex="1" connectable="0">
          <mxGeometry x="-0.35" relative="1" as="geometry">
            <mxPoint as="offset" />
          </mxGeometry>
        </mxCell>
        <mxCell id="_a7eJS6Mzry5bON17dkB-7" value="All hfile size == 0" style="rhombus;whiteSpace=wrap;html=1;" parent="WIyWlLk6GJQsqaUBKTNV-1" vertex="1">
          <mxGeometry x="162.5" y="659" width="145" height="80" as="geometry" />
        </mxCell>
        <mxCell id="_a7eJS6Mzry5bON17dkB-15" value="Failed" style="rounded=1;whiteSpace=wrap;html=1;fontSize=12;glass=0;strokeWidth=1;shadow=0;" parent="WIyWlLk6GJQsqaUBKTNV-1" vertex="1">
          <mxGeometry x="10" y="679" width="120" height="40" as="geometry" />
        </mxCell>
        <mxCell id="_a7eJS6Mzry5bON17dkB-19" value="Yes" style="text;html=1;align=center;verticalAlign=middle;resizable=0;points=[];autosize=1;strokeColor=none;fillColor=none;" parent="WIyWlLk6GJQsqaUBKTNV-1" vertex="1">
          <mxGeometry x="130" y="677" width="40" height="30" as="geometry" />
        </mxCell>
        <mxCell id="_a7eJS6Mzry5bON17dkB-24" value="" style="edgeStyle=orthogonalEdgeStyle;rounded=0;orthogonalLoop=1;jettySize=auto;html=1;" parent="WIyWlLk6GJQsqaUBKTNV-1" source="_a7eJS6Mzry5bON17dkB-20" target="_a7eJS6Mzry5bON17dkB-23" edge="1">
          <mxGeometry relative="1" as="geometry" />
        </mxCell>
        <mxCell id="_a7eJS6Mzry5bON17dkB-25" value="Yes" style="edgeLabel;html=1;align=center;verticalAlign=middle;resizable=0;points=[];" parent="_a7eJS6Mzry5bON17dkB-24" vertex="1" connectable="0">
          <mxGeometry x="0.3263" relative="1" as="geometry">
            <mxPoint as="offset" />
          </mxGeometry>
        </mxCell>
        <mxCell id="_a7eJS6Mzry5bON17dkB-27" value="" style="edgeStyle=orthogonalEdgeStyle;rounded=0;orthogonalLoop=1;jettySize=auto;html=1;" parent="WIyWlLk6GJQsqaUBKTNV-1" source="_a7eJS6Mzry5bON17dkB-20" target="_a7eJS6Mzry5bON17dkB-26" edge="1">
          <mxGeometry relative="1" as="geometry" />
        </mxCell>
        <mxCell id="_a7eJS6Mzry5bON17dkB-28" value="No" style="edgeLabel;html=1;align=center;verticalAlign=middle;resizable=0;points=[];" parent="_a7eJS6Mzry5bON17dkB-27" vertex="1" connectable="0">
          <mxGeometry x="0.32" y="-1" relative="1" as="geometry">
            <mxPoint as="offset" />
          </mxGeometry>
        </mxCell>
        <mxCell id="_a7eJS6Mzry5bON17dkB-20" value="Any hfile zise == 0" style="rhombus;whiteSpace=wrap;html=1;" parent="WIyWlLk6GJQsqaUBKTNV-1" vertex="1">
          <mxGeometry x="162.5" y="779" width="145" height="80" as="geometry" />
        </mxCell>
        <mxCell id="_a7eJS6Mzry5bON17dkB-23" value="Failed" style="rounded=1;whiteSpace=wrap;html=1;fontSize=12;glass=0;strokeWidth=1;shadow=0;" parent="WIyWlLk6GJQsqaUBKTNV-1" vertex="1">
          <mxGeometry x="10" y="799" width="120" height="40" as="geometry" />
        </mxCell>
        <mxCell id="_a7eJS6Mzry5bON17dkB-31" value="" style="edgeStyle=orthogonalEdgeStyle;rounded=0;orthogonalLoop=1;jettySize=auto;html=1;" parent="WIyWlLk6GJQsqaUBKTNV-1" source="_a7eJS6Mzry5bON17dkB-26" target="_a7eJS6Mzry5bON17dkB-30" edge="1">
          <mxGeometry relative="1" as="geometry" />
        </mxCell>
        <mxCell id="_a7eJS6Mzry5bON17dkB-32" value="Yes" style="edgeLabel;html=1;align=center;verticalAlign=middle;resizable=0;points=[];" parent="_a7eJS6Mzry5bON17dkB-31" vertex="1" connectable="0">
          <mxGeometry x="-0.0824" y="2" relative="1" as="geometry">
            <mxPoint x="1" as="offset" />
          </mxGeometry>
        </mxCell>
        <mxCell id="_a7eJS6Mzry5bON17dkB-49" value="" style="edgeStyle=orthogonalEdgeStyle;rounded=0;orthogonalLoop=1;jettySize=auto;html=1;" parent="WIyWlLk6GJQsqaUBKTNV-1" source="_a7eJS6Mzry5bON17dkB-26" target="_a7eJS6Mzry5bON17dkB-29" edge="1">
          <mxGeometry relative="1" as="geometry" />
        </mxCell>
        <mxCell id="_a7eJS6Mzry5bON17dkB-50" value="No" style="edgeLabel;html=1;align=center;verticalAlign=middle;resizable=0;points=[];" parent="_a7eJS6Mzry5bON17dkB-49" vertex="1" connectable="0">
          <mxGeometry x="-0.25" y="-1" relative="1" as="geometry">
            <mxPoint as="offset" />
          </mxGeometry>
        </mxCell>
        <mxCell id="_a7eJS6Mzry5bON17dkB-26" value="All hfile zise == 1 MB" style="rhombus;whiteSpace=wrap;html=1;" parent="WIyWlLk6GJQsqaUBKTNV-1" vertex="1">
          <mxGeometry x="162.5" y="889" width="145" height="80" as="geometry" />
        </mxCell>
        <mxCell id="_a7eJS6Mzry5bON17dkB-52" value="" style="edgeStyle=orthogonalEdgeStyle;rounded=0;orthogonalLoop=1;jettySize=auto;html=1;" parent="WIyWlLk6GJQsqaUBKTNV-1" source="_a7eJS6Mzry5bON17dkB-29" target="_a7eJS6Mzry5bON17dkB-51" edge="1">
          <mxGeometry relative="1" as="geometry" />
        </mxCell>
        <mxCell id="_a7eJS6Mzry5bON17dkB-75" value="Yes" style="edgeLabel;html=1;align=center;verticalAlign=middle;resizable=0;points=[];" parent="_a7eJS6Mzry5bON17dkB-52" vertex="1" connectable="0">
          <mxGeometry x="-0.4417" relative="1" as="geometry">
            <mxPoint y="1" as="offset" />
          </mxGeometry>
        </mxCell>
        <mxCell id="_a7eJS6Mzry5bON17dkB-102" value="" style="edgeStyle=orthogonalEdgeStyle;rounded=0;orthogonalLoop=1;jettySize=auto;html=1;" parent="WIyWlLk6GJQsqaUBKTNV-1" source="_a7eJS6Mzry5bON17dkB-29" target="_a7eJS6Mzry5bON17dkB-101" edge="1">
          <mxGeometry relative="1" as="geometry" />
        </mxCell>
        <mxCell id="_a7eJS6Mzry5bON17dkB-104" value="No" style="edgeLabel;html=1;align=center;verticalAlign=middle;resizable=0;points=[];" parent="_a7eJS6Mzry5bON17dkB-102" vertex="1" connectable="0">
          <mxGeometry x="0.1209" y="-4" relative="1" as="geometry">
            <mxPoint x="1" as="offset" />
          </mxGeometry>
        </mxCell>
        <mxCell id="_a7eJS6Mzry5bON17dkB-29" value="Any hfile size == 1MB" style="rhombus;whiteSpace=wrap;html=1;" parent="WIyWlLk6GJQsqaUBKTNV-1" vertex="1">
          <mxGeometry x="162.5" y="1009" width="145" height="80" as="geometry" />
        </mxCell>
        <mxCell id="_a7eJS6Mzry5bON17dkB-34" value="" style="edgeStyle=orthogonalEdgeStyle;rounded=0;orthogonalLoop=1;jettySize=auto;html=1;" parent="WIyWlLk6GJQsqaUBKTNV-1" source="_a7eJS6Mzry5bON17dkB-30" target="_a7eJS6Mzry5bON17dkB-33" edge="1">
          <mxGeometry relative="1" as="geometry" />
        </mxCell>
        <mxCell id="_a7eJS6Mzry5bON17dkB-36" value="Yes" style="edgeLabel;html=1;align=center;verticalAlign=middle;resizable=0;points=[];" parent="_a7eJS6Mzry5bON17dkB-34" vertex="1" connectable="0">
          <mxGeometry x="-0.0222" y="1" relative="1" as="geometry">
            <mxPoint as="offset" />
          </mxGeometry>
        </mxCell>
        <mxCell id="_a7eJS6Mzry5bON17dkB-40" value="" style="edgeStyle=orthogonalEdgeStyle;rounded=0;orthogonalLoop=1;jettySize=auto;html=1;" parent="WIyWlLk6GJQsqaUBKTNV-1" source="_a7eJS6Mzry5bON17dkB-30" target="_a7eJS6Mzry5bON17dkB-37" edge="1">
          <mxGeometry relative="1" as="geometry" />
        </mxCell>
        <mxCell id="_a7eJS6Mzry5bON17dkB-42" value="No" style="edgeLabel;html=1;align=center;verticalAlign=middle;resizable=0;points=[];" parent="_a7eJS6Mzry5bON17dkB-40" vertex="1" connectable="0">
          <mxGeometry x="-0.075" y="-1" relative="1" as="geometry">
            <mxPoint as="offset" />
          </mxGeometry>
        </mxCell>
        <mxCell id="_a7eJS6Mzry5bON17dkB-30" value="Any qps &amp;lt; 10" style="rhombus;whiteSpace=wrap;html=1;" parent="WIyWlLk6GJQsqaUBKTNV-1" vertex="1">
          <mxGeometry x="350" y="889" width="145" height="80" as="geometry" />
        </mxCell>
        <mxCell id="_a7eJS6Mzry5bON17dkB-33" value="Failed" style="rounded=1;whiteSpace=wrap;html=1;fontSize=12;glass=0;strokeWidth=1;shadow=0;fillColor=#D1D1D1;" parent="WIyWlLk6GJQsqaUBKTNV-1" vertex="1">
          <mxGeometry x="540" y="909" width="120" height="40" as="geometry" />
        </mxCell>
        <mxCell id="_a7eJS6Mzry5bON17dkB-44" value="" style="edgeStyle=orthogonalEdgeStyle;rounded=0;orthogonalLoop=1;jettySize=auto;html=1;" parent="WIyWlLk6GJQsqaUBKTNV-1" source="_a7eJS6Mzry5bON17dkB-37" target="_a7eJS6Mzry5bON17dkB-43" edge="1">
          <mxGeometry relative="1" as="geometry" />
        </mxCell>
        <mxCell id="_a7eJS6Mzry5bON17dkB-45" value="No" style="edgeLabel;html=1;align=center;verticalAlign=middle;resizable=0;points=[];" parent="_a7eJS6Mzry5bON17dkB-44" vertex="1" connectable="0">
          <mxGeometry x="-0.2444" y="5" relative="1" as="geometry">
            <mxPoint y="1" as="offset" />
          </mxGeometry>
        </mxCell>
        <mxCell id="_a7eJS6Mzry5bON17dkB-47" value="" style="edgeStyle=orthogonalEdgeStyle;rounded=0;orthogonalLoop=1;jettySize=auto;html=1;" parent="WIyWlLk6GJQsqaUBKTNV-1" source="_a7eJS6Mzry5bON17dkB-37" target="_a7eJS6Mzry5bON17dkB-46" edge="1">
          <mxGeometry relative="1" as="geometry" />
        </mxCell>
        <mxCell id="_a7eJS6Mzry5bON17dkB-48" value="Yes" style="edgeLabel;html=1;align=center;verticalAlign=middle;resizable=0;points=[];" parent="_a7eJS6Mzry5bON17dkB-47" vertex="1" connectable="0">
          <mxGeometry x="0.3" y="-3" relative="1" as="geometry">
            <mxPoint as="offset" />
          </mxGeometry>
        </mxCell>
        <mxCell id="_a7eJS6Mzry5bON17dkB-37" value="0.9 mean &amp;lt;= all qps &amp;lt;= 1.1 mean&amp;nbsp; &amp;nbsp;" style="rhombus;whiteSpace=wrap;html=1;" parent="WIyWlLk6GJQsqaUBKTNV-1" vertex="1">
          <mxGeometry x="350" y="1009" width="145" height="80" as="geometry" />
        </mxCell>
        <mxCell id="_a7eJS6Mzry5bON17dkB-43" value="Failed" style="rounded=1;whiteSpace=wrap;html=1;fontSize=12;glass=0;strokeWidth=1;shadow=0;fillColor=#D1D1D1;" parent="WIyWlLk6GJQsqaUBKTNV-1" vertex="1">
          <mxGeometry x="540" y="1029" width="120" height="40" as="geometry" />
        </mxCell>
        <mxCell id="_a7eJS6Mzry5bON17dkB-46" value="Successful" style="rounded=1;whiteSpace=wrap;html=1;fontSize=12;glass=0;strokeWidth=1;shadow=0;" parent="WIyWlLk6GJQsqaUBKTNV-1" vertex="1">
          <mxGeometry x="362.5" y="1119" width="120" height="40" as="geometry" />
        </mxCell>
        <mxCell id="_a7eJS6Mzry5bON17dkB-71" value="" style="edgeStyle=orthogonalEdgeStyle;rounded=0;orthogonalLoop=1;jettySize=auto;html=1;" parent="WIyWlLk6GJQsqaUBKTNV-1" source="_a7eJS6Mzry5bON17dkB-51" target="_a7eJS6Mzry5bON17dkB-53" edge="1">
          <mxGeometry relative="1" as="geometry" />
        </mxCell>
        <mxCell id="_a7eJS6Mzry5bON17dkB-72" value="Yes" style="edgeLabel;html=1;align=center;verticalAlign=middle;resizable=0;points=[];" parent="_a7eJS6Mzry5bON17dkB-71" vertex="1" connectable="0">
          <mxGeometry x="-0.1846" y="2" relative="1" as="geometry">
            <mxPoint y="1" as="offset" />
          </mxGeometry>
        </mxCell>
        <mxCell id="_a7eJS6Mzry5bON17dkB-96" value="" style="edgeStyle=orthogonalEdgeStyle;rounded=0;orthogonalLoop=1;jettySize=auto;html=1;" parent="WIyWlLk6GJQsqaUBKTNV-1" source="_a7eJS6Mzry5bON17dkB-51" target="_a7eJS6Mzry5bON17dkB-95" edge="1">
          <mxGeometry relative="1" as="geometry" />
        </mxCell>
        <mxCell id="_a7eJS6Mzry5bON17dkB-105" value="No" style="edgeLabel;html=1;align=center;verticalAlign=middle;resizable=0;points=[];" parent="_a7eJS6Mzry5bON17dkB-96" vertex="1" connectable="0">
          <mxGeometry x="0.22" y="-1" relative="1" as="geometry">
            <mxPoint as="offset" />
          </mxGeometry>
        </mxCell>
        <mxCell id="_a7eJS6Mzry5bON17dkB-51" value="All hfile num == 1" style="rhombus;whiteSpace=wrap;html=1;" parent="WIyWlLk6GJQsqaUBKTNV-1" vertex="1">
          <mxGeometry x="162.5" y="1209" width="145" height="80" as="geometry" />
        </mxCell>
        <mxCell id="_a7eJS6Mzry5bON17dkB-73" value="" style="edgeStyle=orthogonalEdgeStyle;rounded=0;orthogonalLoop=1;jettySize=auto;html=1;" parent="WIyWlLk6GJQsqaUBKTNV-1" source="_a7eJS6Mzry5bON17dkB-53" target="_a7eJS6Mzry5bON17dkB-54" edge="1">
          <mxGeometry relative="1" as="geometry" />
        </mxCell>
        <mxCell id="_a7eJS6Mzry5bON17dkB-74" value="Yes" style="edgeLabel;html=1;align=center;verticalAlign=middle;resizable=0;points=[];" parent="_a7eJS6Mzry5bON17dkB-73" vertex="1" connectable="0">
          <mxGeometry x="0.34" y="1" relative="1" as="geometry">
            <mxPoint as="offset" />
          </mxGeometry>
        </mxCell>
        <mxCell id="_a7eJS6Mzry5bON17dkB-53" value="Any hfile size &amp;gt; 2" style="rhombus;whiteSpace=wrap;html=1;" parent="WIyWlLk6GJQsqaUBKTNV-1" vertex="1">
          <mxGeometry x="372.5" y="1209" width="145" height="80" as="geometry" />
        </mxCell>
        <mxCell id="_a7eJS6Mzry5bON17dkB-54" value="Failed" style="rounded=1;whiteSpace=wrap;html=1;fontSize=12;glass=0;strokeWidth=1;shadow=0;" parent="WIyWlLk6GJQsqaUBKTNV-1" vertex="1">
          <mxGeometry x="385" y="1319" width="120" height="40" as="geometry" />
        </mxCell>
        <mxCell id="_a7eJS6Mzry5bON17dkB-67" value="" style="endArrow=classic;html=1;rounded=0;exitX=1;exitY=0.5;exitDx=0;exitDy=0;entryX=0.5;entryY=0;entryDx=0;entryDy=0;" parent="WIyWlLk6GJQsqaUBKTNV-1" source="_a7eJS6Mzry5bON17dkB-53" target="_a7eJS6Mzry5bON17dkB-30" edge="1">
          <mxGeometry width="50" height="50" relative="1" as="geometry">
            <mxPoint x="390" y="1240" as="sourcePoint" />
            <mxPoint x="430" y="869" as="targetPoint" />
            <Array as="points">
              <mxPoint x="720" y="1249" />
              <mxPoint x="720" y="819" />
              <mxPoint x="423" y="819" />
            </Array>
          </mxGeometry>
        </mxCell>
        <mxCell id="_a7eJS6Mzry5bON17dkB-68" value="No" style="edgeLabel;html=1;align=center;verticalAlign=middle;resizable=0;points=[];" parent="_a7eJS6Mzry5bON17dkB-67" vertex="1" connectable="0">
          <mxGeometry x="-0.9661" y="2" relative="1" as="geometry">
            <mxPoint y="1" as="offset" />
          </mxGeometry>
        </mxCell>
        <mxCell id="_a7eJS6Mzry5bON17dkB-91" value="" style="edgeStyle=orthogonalEdgeStyle;rounded=0;orthogonalLoop=1;jettySize=auto;html=1;" parent="WIyWlLk6GJQsqaUBKTNV-1" source="_a7eJS6Mzry5bON17dkB-78" target="WIyWlLk6GJQsqaUBKTNV-6" edge="1">
          <mxGeometry relative="1" as="geometry" />
        </mxCell>
        <mxCell id="_a7eJS6Mzry5bON17dkB-78" value="Get ticket info:test table, size, split algorithm" style="rounded=0;whiteSpace=wrap;html=1;" parent="WIyWlLk6GJQsqaUBKTNV-1" vertex="1">
          <mxGeometry x="175" y="71" width="120" height="60" as="geometry" />
        </mxCell>
        <mxCell id="_a7eJS6Mzry5bON17dkB-79" value="Get table info from web" style="rounded=0;whiteSpace=wrap;html=1;" parent="WIyWlLk6GJQsqaUBKTNV-1" vertex="1">
          <mxGeometry x="175" y="400" width="120" height="60" as="geometry" />
        </mxCell>
        <mxCell id="_a7eJS6Mzry5bON17dkB-99" value="" style="edgeStyle=orthogonalEdgeStyle;rounded=0;orthogonalLoop=1;jettySize=auto;html=1;" parent="WIyWlLk6GJQsqaUBKTNV-1" source="_a7eJS6Mzry5bON17dkB-95" target="_a7eJS6Mzry5bON17dkB-98" edge="1">
          <mxGeometry relative="1" as="geometry" />
        </mxCell>
        <mxCell id="_a7eJS6Mzry5bON17dkB-95" value="Major compact（确保 所有 hfile num == 1,timeout = 60s)" style="rounded=0;whiteSpace=wrap;html=1;" parent="WIyWlLk6GJQsqaUBKTNV-1" vertex="1">
          <mxGeometry x="175" y="1319" width="120" height="50" as="geometry" />
        </mxCell>
        <mxCell id="_a7eJS6Mzry5bON17dkB-100" style="edgeStyle=orthogonalEdgeStyle;rounded=0;orthogonalLoop=1;jettySize=auto;html=1;entryX=1;entryY=0.5;entryDx=0;entryDy=0;" parent="WIyWlLk6GJQsqaUBKTNV-1" source="_a7eJS6Mzry5bON17dkB-98" target="_a7eJS6Mzry5bON17dkB-7" edge="1">
          <mxGeometry relative="1" as="geometry">
            <Array as="points">
              <mxPoint x="800" y="1439" />
              <mxPoint x="800" y="699" />
            </Array>
          </mxGeometry>
        </mxCell>
        <mxCell id="_a7eJS6Mzry5bON17dkB-98" value="Get table info from web，假设 All memstore size == 0" style="rounded=0;whiteSpace=wrap;html=1;" parent="WIyWlLk6GJQsqaUBKTNV-1" vertex="1">
          <mxGeometry x="175" y="1409" width="120" height="60" as="geometry" />
        </mxCell>
        <mxCell id="_a7eJS6Mzry5bON17dkB-107" value="" style="edgeStyle=orthogonalEdgeStyle;rounded=0;orthogonalLoop=1;jettySize=auto;html=1;" parent="WIyWlLk6GJQsqaUBKTNV-1" source="_a7eJS6Mzry5bON17dkB-101" target="_a7eJS6Mzry5bON17dkB-106" edge="1">
          <mxGeometry relative="1" as="geometry" />
        </mxCell>
        <mxCell id="_a7eJS6Mzry5bON17dkB-108" value="Yes" style="edgeLabel;html=1;align=center;verticalAlign=middle;resizable=0;points=[];" parent="_a7eJS6Mzry5bON17dkB-107" vertex="1" connectable="0">
          <mxGeometry x="-0.1" y="-3" relative="1" as="geometry">
            <mxPoint as="offset" />
          </mxGeometry>
        </mxCell>
        <mxCell id="_a7eJS6Mzry5bON17dkB-117" value="" style="edgeStyle=orthogonalEdgeStyle;rounded=0;orthogonalLoop=1;jettySize=auto;html=1;" parent="WIyWlLk6GJQsqaUBKTNV-1" source="_a7eJS6Mzry5bON17dkB-101" target="_a7eJS6Mzry5bON17dkB-116" edge="1">
          <mxGeometry relative="1" as="geometry" />
        </mxCell>
        <mxCell id="_a7eJS6Mzry5bON17dkB-118" value="No" style="edgeLabel;html=1;align=center;verticalAlign=middle;resizable=0;points=[];" parent="_a7eJS6Mzry5bON17dkB-117" vertex="1" connectable="0">
          <mxGeometry x="-0.2" y="-1" relative="1" as="geometry">
            <mxPoint as="offset" />
          </mxGeometry>
        </mxCell>
        <mxCell id="_a7eJS6Mzry5bON17dkB-101" value="All hfile size &amp;gt; 1GB" style="rhombus;whiteSpace=wrap;html=1;" parent="WIyWlLk6GJQsqaUBKTNV-1" vertex="1">
          <mxGeometry x="-17" y="1009" width="145" height="80" as="geometry" />
        </mxCell>
        <mxCell id="_a7eJS6Mzry5bON17dkB-113" value="" style="edgeStyle=orthogonalEdgeStyle;rounded=0;orthogonalLoop=1;jettySize=auto;html=1;" parent="WIyWlLk6GJQsqaUBKTNV-1" source="_a7eJS6Mzry5bON17dkB-106" target="_a7eJS6Mzry5bON17dkB-110" edge="1">
          <mxGeometry relative="1" as="geometry" />
        </mxCell>
        <mxCell id="_a7eJS6Mzry5bON17dkB-115" value="Yes" style="edgeLabel;html=1;align=center;verticalAlign=middle;resizable=0;points=[];" parent="_a7eJS6Mzry5bON17dkB-113" vertex="1" connectable="0">
          <mxGeometry x="0.24" y="1" relative="1" as="geometry">
            <mxPoint as="offset" />
          </mxGeometry>
        </mxCell>
        <mxCell id="_a7eJS6Mzry5bON17dkB-114" value="No" style="edgeStyle=orthogonalEdgeStyle;rounded=0;orthogonalLoop=1;jettySize=auto;html=1;" parent="WIyWlLk6GJQsqaUBKTNV-1" source="_a7eJS6Mzry5bON17dkB-106" target="_a7eJS6Mzry5bON17dkB-112" edge="1">
          <mxGeometry relative="1" as="geometry" />
        </mxCell>
        <mxCell id="_a7eJS6Mzry5bON17dkB-106" value="0.9 mean &amp;lt;= all hfile size &amp;lt;= 1.1 mean&amp;nbsp; &amp;nbsp;" style="rhombus;whiteSpace=wrap;html=1;" parent="WIyWlLk6GJQsqaUBKTNV-1" vertex="1">
          <mxGeometry x="-220" y="1009" width="145" height="80" as="geometry" />
        </mxCell>
        <mxCell id="_a7eJS6Mzry5bON17dkB-110" value="Successful" style="rounded=1;whiteSpace=wrap;html=1;fontSize=12;glass=0;strokeWidth=1;shadow=0;" parent="WIyWlLk6GJQsqaUBKTNV-1" vertex="1">
          <mxGeometry x="-207.5" y="919" width="120" height="40" as="geometry" />
        </mxCell>
        <mxCell id="_a7eJS6Mzry5bON17dkB-112" value="Failed" style="rounded=1;whiteSpace=wrap;html=1;fontSize=12;glass=0;strokeWidth=1;shadow=0;fillColor=#D1D1D1;" parent="WIyWlLk6GJQsqaUBKTNV-1" vertex="1">
          <mxGeometry x="-400" y="1029" width="120" height="40" as="geometry" />
        </mxCell>
        <mxCell id="_a7eJS6Mzry5bON17dkB-119" style="edgeStyle=orthogonalEdgeStyle;rounded=0;orthogonalLoop=1;jettySize=auto;html=1;entryX=0;entryY=0.5;entryDx=0;entryDy=0;" parent="WIyWlLk6GJQsqaUBKTNV-1" source="_a7eJS6Mzry5bON17dkB-116" target="_a7eJS6Mzry5bON17dkB-95" edge="1">
          <mxGeometry relative="1" as="geometry">
            <Array as="points">
              <mxPoint x="56" y="1344" />
            </Array>
          </mxGeometry>
        </mxCell>
        <mxCell id="_a7eJS6Mzry5bON17dkB-120" value="No" style="edgeLabel;html=1;align=center;verticalAlign=middle;resizable=0;points=[];" parent="_a7eJS6Mzry5bON17dkB-119" vertex="1" connectable="0">
          <mxGeometry x="-0.7902" y="3" relative="1" as="geometry">
            <mxPoint as="offset" />
          </mxGeometry>
        </mxCell>
        <mxCell id="_a7eJS6Mzry5bON17dkB-121" style="edgeStyle=orthogonalEdgeStyle;rounded=0;orthogonalLoop=1;jettySize=auto;html=1;entryX=0.5;entryY=1;entryDx=0;entryDy=0;" parent="WIyWlLk6GJQsqaUBKTNV-1" source="_a7eJS6Mzry5bON17dkB-116" target="_a7eJS6Mzry5bON17dkB-106" edge="1">
          <mxGeometry relative="1" as="geometry" />
        </mxCell>
        <mxCell id="_a7eJS6Mzry5bON17dkB-122" value="Yes" style="edgeLabel;html=1;align=center;verticalAlign=middle;resizable=0;points=[];" parent="_a7eJS6Mzry5bON17dkB-121" vertex="1" connectable="0">
          <mxGeometry x="-0.7445" relative="1" as="geometry">
            <mxPoint as="offset" />
          </mxGeometry>
        </mxCell>
        <mxCell id="_a7eJS6Mzry5bON17dkB-116" value="All hfile num == 1" style="rhombus;whiteSpace=wrap;html=1;" parent="WIyWlLk6GJQsqaUBKTNV-1" vertex="1">
          <mxGeometry x="-17" y="1169" width="145" height="80" as="geometry" />
        </mxCell>
        <mxCell id="_a7eJS6Mzry5bON17dkB-126" value="" style="edgeStyle=orthogonalEdgeStyle;rounded=0;orthogonalLoop=1;jettySize=auto;html=1;" parent="WIyWlLk6GJQsqaUBKTNV-1" source="_a7eJS6Mzry5bON17dkB-123" target="_a7eJS6Mzry5bON17dkB-125" edge="1">
          <mxGeometry relative="1" as="geometry" />
        </mxCell>
        <mxCell id="_a7eJS6Mzry5bON17dkB-123" value="Flush table" style="rounded=0;whiteSpace=wrap;html=1;" parent="WIyWlLk6GJQsqaUBKTNV-1" vertex="1">
          <mxGeometry x="354" y="500" width="120" height="60" as="geometry" />
        </mxCell>
        <mxCell id="_a7eJS6Mzry5bON17dkB-128" value="" style="edgeStyle=orthogonalEdgeStyle;rounded=0;orthogonalLoop=1;jettySize=auto;html=1;" parent="WIyWlLk6GJQsqaUBKTNV-1" source="_a7eJS6Mzry5bON17dkB-125" target="_a7eJS6Mzry5bON17dkB-127" edge="1">
          <mxGeometry relative="1" as="geometry" />
        </mxCell>
        <mxCell id="_a7eJS6Mzry5bON17dkB-125" value="Get table info from web" style="rounded=0;whiteSpace=wrap;html=1;" parent="WIyWlLk6GJQsqaUBKTNV-1" vertex="1">
          <mxGeometry x="517.5" y="500" width="120" height="60" as="geometry" />
        </mxCell>
        <mxCell id="_a7eJS6Mzry5bON17dkB-131" style="edgeStyle=orthogonalEdgeStyle;rounded=0;orthogonalLoop=1;jettySize=auto;html=1;entryX=0.5;entryY=0;entryDx=0;entryDy=0;" parent="WIyWlLk6GJQsqaUBKTNV-1" source="_a7eJS6Mzry5bON17dkB-127" target="_a7eJS6Mzry5bON17dkB-7" edge="1">
          <mxGeometry relative="1" as="geometry">
            <Array as="points">
              <mxPoint x="733" y="620" />
              <mxPoint x="235" y="620" />
            </Array>
          </mxGeometry>
        </mxCell>
        <mxCell id="_a7eJS6Mzry5bON17dkB-135" value="Yes" style="edgeLabel;html=1;align=center;verticalAlign=middle;resizable=0;points=[];" parent="_a7eJS6Mzry5bON17dkB-131" vertex="1" connectable="0">
          <mxGeometry x="-0.9335" y="2" relative="1" as="geometry">
            <mxPoint as="offset" />
          </mxGeometry>
        </mxCell>
        <mxCell id="_a7eJS6Mzry5bON17dkB-142" value="" style="edgeStyle=orthogonalEdgeStyle;rounded=0;orthogonalLoop=1;jettySize=auto;html=1;" parent="WIyWlLk6GJQsqaUBKTNV-1" source="_a7eJS6Mzry5bON17dkB-127" target="_a7eJS6Mzry5bON17dkB-136" edge="1">
          <mxGeometry relative="1" as="geometry" />
        </mxCell>
        <mxCell id="_a7eJS6Mzry5bON17dkB-143" value="No" style="edgeLabel;html=1;align=center;verticalAlign=middle;resizable=0;points=[];" parent="_a7eJS6Mzry5bON17dkB-142" vertex="1" connectable="0">
          <mxGeometry x="0.2909" y="5" relative="1" as="geometry">
            <mxPoint x="1" y="1" as="offset" />
          </mxGeometry>
        </mxCell>
        <mxCell id="_a7eJS6Mzry5bON17dkB-127" value="All memstore size == 0" style="rhombus;whiteSpace=wrap;html=1;" parent="WIyWlLk6GJQsqaUBKTNV-1" vertex="1">
          <mxGeometry x="660" y="490" width="145" height="80" as="geometry" />
        </mxCell>
        <mxCell id="_a7eJS6Mzry5bON17dkB-151" style="edgeStyle=orthogonalEdgeStyle;rounded=0;orthogonalLoop=1;jettySize=auto;html=1;entryX=0.5;entryY=0;entryDx=0;entryDy=0;" parent="WIyWlLk6GJQsqaUBKTNV-1" source="_a7eJS6Mzry5bON17dkB-133" target="_a7eJS6Mzry5bON17dkB-7" edge="1">
          <mxGeometry relative="1" as="geometry">
            <Array as="points">
              <mxPoint x="1241" y="620" />
              <mxPoint x="235" y="620" />
            </Array>
          </mxGeometry>
        </mxCell>
        <mxCell id="_a7eJS6Mzry5bON17dkB-133" value="假设 All memstore size == 0" style="rounded=0;whiteSpace=wrap;html=1;" parent="WIyWlLk6GJQsqaUBKTNV-1" vertex="1">
          <mxGeometry x="1181" y="500" width="120" height="60" as="geometry" />
        </mxCell>
        <mxCell id="_a7eJS6Mzry5bON17dkB-139" value="Yes" style="edgeStyle=orthogonalEdgeStyle;rounded=0;orthogonalLoop=1;jettySize=auto;html=1;" parent="WIyWlLk6GJQsqaUBKTNV-1" source="_a7eJS6Mzry5bON17dkB-136" target="_a7eJS6Mzry5bON17dkB-138" edge="1">
          <mxGeometry relative="1" as="geometry" />
        </mxCell>
        <mxCell id="_a7eJS6Mzry5bON17dkB-141" value="" style="edgeStyle=orthogonalEdgeStyle;rounded=0;orthogonalLoop=1;jettySize=auto;html=1;" parent="WIyWlLk6GJQsqaUBKTNV-1" source="_a7eJS6Mzry5bON17dkB-136" target="_a7eJS6Mzry5bON17dkB-140" edge="1">
          <mxGeometry relative="1" as="geometry" />
        </mxCell>
        <mxCell id="_a7eJS6Mzry5bON17dkB-147" value="No" style="edgeLabel;html=1;align=center;verticalAlign=middle;resizable=0;points=[];" parent="_a7eJS6Mzry5bON17dkB-141" vertex="1" connectable="0">
          <mxGeometry x="0.3636" y="1" relative="1" as="geometry">
            <mxPoint x="1" as="offset" />
          </mxGeometry>
        </mxCell>
        <mxCell id="_a7eJS6Mzry5bON17dkB-136" value="是否发生 split" style="rhombus;whiteSpace=wrap;html=1;" parent="WIyWlLk6GJQsqaUBKTNV-1" vertex="1">
          <mxGeometry x="830" y="490" width="145" height="80" as="geometry" />
        </mxCell>
        <mxCell id="_a7eJS6Mzry5bON17dkB-138" value="Failed" style="rounded=1;whiteSpace=wrap;html=1;fontSize=12;glass=0;strokeWidth=1;shadow=0;" parent="WIyWlLk6GJQsqaUBKTNV-1" vertex="1">
          <mxGeometry x="842.5" y="410" width="120" height="40" as="geometry" />
        </mxCell>
        <mxCell id="_a7eJS6Mzry5bON17dkB-146" value="" style="edgeStyle=orthogonalEdgeStyle;rounded=0;orthogonalLoop=1;jettySize=auto;html=1;" parent="WIyWlLk6GJQsqaUBKTNV-1" source="_a7eJS6Mzry5bON17dkB-140" target="_a7eJS6Mzry5bON17dkB-145" edge="1">
          <mxGeometry relative="1" as="geometry" />
        </mxCell>
        <mxCell id="_a7eJS6Mzry5bON17dkB-149" value="Yes" style="edgeLabel;html=1;align=center;verticalAlign=middle;resizable=0;points=[];" parent="_a7eJS6Mzry5bON17dkB-146" vertex="1" connectable="0">
          <mxGeometry x="-0.1" y="-2" relative="1" as="geometry">
            <mxPoint x="1" as="offset" />
          </mxGeometry>
        </mxCell>
        <mxCell id="_a7eJS6Mzry5bON17dkB-148" value="" style="edgeStyle=orthogonalEdgeStyle;rounded=0;orthogonalLoop=1;jettySize=auto;html=1;" parent="WIyWlLk6GJQsqaUBKTNV-1" source="_a7eJS6Mzry5bON17dkB-140" target="_a7eJS6Mzry5bON17dkB-133" edge="1">
          <mxGeometry relative="1" as="geometry" />
        </mxCell>
        <mxCell id="_a7eJS6Mzry5bON17dkB-150" value="No" style="edgeLabel;html=1;align=center;verticalAlign=middle;resizable=0;points=[];" parent="_a7eJS6Mzry5bON17dkB-148" vertex="1" connectable="0">
          <mxGeometry x="-0.4545" y="2" relative="1" as="geometry">
            <mxPoint as="offset" />
          </mxGeometry>
        </mxCell>
        <mxCell id="_a7eJS6Mzry5bON17dkB-140" value="any (mem size &amp;gt; 0 and&amp;nbsp; qps 减少)" style="rhombus;whiteSpace=wrap;html=1;" parent="WIyWlLk6GJQsqaUBKTNV-1" vertex="1">
          <mxGeometry x="1000" y="490" width="145" height="80" as="geometry" />
        </mxCell>
        <mxCell id="_a7eJS6Mzry5bON17dkB-145" value="Failed" style="rounded=1;whiteSpace=wrap;html=1;fontSize=12;glass=0;strokeWidth=1;shadow=0;fillColor=#D1D1D1;" parent="WIyWlLk6GJQsqaUBKTNV-1" vertex="1">
          <mxGeometry x="1012.5" y="410" width="120" height="40" as="geometry" />
        </mxCell>
      </root>
    </mxGraphModel>
  </diagram>
</mxfile>
